<mxfile host="Electron" modified="2024-07-21T08:50:50.170Z" agent="Mozilla/5.0 (Macintosh; Intel Mac OS X 10_15_7) AppleWebKit/537.36 (KHTML, like Gecko) draw.io/24.6.4 Chrome/124.0.6367.207 Electron/30.0.6 Safari/537.36" etag="L8UHtVfP9qiVZ8NxeXb0" version="24.6.4" type="device">
  <diagram name="페이지-1" id="etszeWPhUFACzqD7V27b">
    <mxGraphModel dx="1114" dy="894" grid="1" gridSize="10" guides="1" tooltips="1" connect="1" arrows="1" fold="1" page="1" pageScale="1" pageWidth="827" pageHeight="1169" math="0" shadow="0">
      <root>
        <mxCell id="0" />
        <mxCell id="1" parent="0" />
        <mxCell id="miWniJRRDA7Mk2ydVnPU-1" value="Catalogue" style="ellipse;whiteSpace=wrap;html=1;fillColor=#dae8fc;strokeColor=#6c8ebf;" vertex="1" parent="1">
          <mxGeometry x="120" y="140" width="100" height="100" as="geometry" />
        </mxCell>
        <mxCell id="miWniJRRDA7Mk2ydVnPU-4" value="Review" style="ellipse;whiteSpace=wrap;html=1;fillColor=#dae8fc;strokeColor=#6c8ebf;" vertex="1" parent="1">
          <mxGeometry x="120" y="320" width="100" height="100" as="geometry" />
        </mxCell>
        <mxCell id="miWniJRRDA7Mk2ydVnPU-5" value="Member" style="ellipse;whiteSpace=wrap;html=1;fillColor=#dae8fc;strokeColor=#6c8ebf;" vertex="1" parent="1">
          <mxGeometry x="350" y="320" width="100" height="100" as="geometry" />
        </mxCell>
        <mxCell id="miWniJRRDA7Mk2ydVnPU-6" value="Order" style="ellipse;whiteSpace=wrap;html=1;fillColor=#dae8fc;strokeColor=#6c8ebf;" vertex="1" parent="1">
          <mxGeometry x="350" y="140" width="100" height="100" as="geometry" />
        </mxCell>
        <mxCell id="miWniJRRDA7Mk2ydVnPU-18" style="edgeStyle=orthogonalEdgeStyle;rounded=0;orthogonalLoop=1;jettySize=auto;html=1;entryX=0;entryY=0.5;entryDx=0;entryDy=0;curved=1;endArrow=none;endFill=0;" edge="1" parent="1" source="miWniJRRDA7Mk2ydVnPU-7" target="miWniJRRDA7Mk2ydVnPU-15">
          <mxGeometry relative="1" as="geometry" />
        </mxCell>
        <mxCell id="miWniJRRDA7Mk2ydVnPU-7" value="OHS" style="rounded=1;whiteSpace=wrap;html=1;" vertex="1" parent="1">
          <mxGeometry x="210" y="175" width="50" height="30" as="geometry" />
        </mxCell>
        <mxCell id="miWniJRRDA7Mk2ydVnPU-9" value="OHS" style="rounded=1;whiteSpace=wrap;html=1;" vertex="1" parent="1">
          <mxGeometry x="375" y="310" width="50" height="30" as="geometry" />
        </mxCell>
        <mxCell id="miWniJRRDA7Mk2ydVnPU-10" value="OHS" style="rounded=1;whiteSpace=wrap;html=1;" vertex="1" parent="1">
          <mxGeometry x="145" y="300" width="50" height="30" as="geometry" />
        </mxCell>
        <mxCell id="miWniJRRDA7Mk2ydVnPU-19" style="edgeStyle=orthogonalEdgeStyle;rounded=0;orthogonalLoop=1;jettySize=auto;html=1;endArrow=none;endFill=0;curved=1;" edge="1" parent="1" source="miWniJRRDA7Mk2ydVnPU-14" target="miWniJRRDA7Mk2ydVnPU-9">
          <mxGeometry relative="1" as="geometry" />
        </mxCell>
        <mxCell id="miWniJRRDA7Mk2ydVnPU-14" value="ACL" style="rounded=1;whiteSpace=wrap;html=1;" vertex="1" parent="1">
          <mxGeometry x="375" y="220" width="50" height="30" as="geometry" />
        </mxCell>
        <mxCell id="miWniJRRDA7Mk2ydVnPU-15" value="ACL" style="rounded=1;whiteSpace=wrap;html=1;" vertex="1" parent="1">
          <mxGeometry x="320" y="200" width="50" height="30" as="geometry" />
        </mxCell>
        <mxCell id="miWniJRRDA7Mk2ydVnPU-17" style="edgeStyle=orthogonalEdgeStyle;rounded=0;orthogonalLoop=1;jettySize=auto;html=1;entryX=0.5;entryY=0;entryDx=0;entryDy=0;endArrow=none;endFill=0;curved=1;" edge="1" parent="1" source="miWniJRRDA7Mk2ydVnPU-16" target="miWniJRRDA7Mk2ydVnPU-10">
          <mxGeometry relative="1" as="geometry" />
        </mxCell>
        <mxCell id="miWniJRRDA7Mk2ydVnPU-16" value="ACL" style="rounded=1;whiteSpace=wrap;html=1;" vertex="1" parent="1">
          <mxGeometry x="145" y="220" width="50" height="30" as="geometry" />
        </mxCell>
        <mxCell id="miWniJRRDA7Mk2ydVnPU-20" value="OHS: 오픈 호스트 서비스" style="rounded=1;whiteSpace=wrap;html=1;" vertex="1" parent="1">
          <mxGeometry x="325" y="470" width="135" height="30" as="geometry" />
        </mxCell>
        <mxCell id="miWniJRRDA7Mk2ydVnPU-21" value="ACL: 안티코럽션 계층" style="rounded=1;whiteSpace=wrap;html=1;" vertex="1" parent="1">
          <mxGeometry x="325" y="510" width="135" height="30" as="geometry" />
        </mxCell>
      </root>
    </mxGraphModel>
  </diagram>
</mxfile>
